<svg width="39.437500" height="37.026855" viewBox="0 0 39.4375 37.0269" fill="none" xmlns="http://www.w3.org/2000/svg" xmlns:xlink="http://www.w3.org/1999/xlink">
	<desc>
			Created with Pixso.
	</desc>
	<defs>
		<filter id="filter_95_346_dd" x="0.000000" y="0.000000" width="39.437500" height="37.026855" filterUnits="userSpaceOnUse" color-interpolation-filters="sRGB">
			<feFlood flood-opacity="0" result="BackgroundImageFix"/>
			<feColorMatrix in="SourceAlpha" type="matrix" values="0 0 0 0 0 0 0 0 0 0 0 0 0 0 0 0 0 0 127 0" result="hardAlpha"/>
			<feOffset dx="0" dy="0"/>
			<feGaussianBlur stdDeviation="1.33333"/>
			<feComposite in2="hardAlpha" operator="out" k2="-1" k3="1"/>
			<feColorMatrix type="matrix" values="0 0 0 0 1 0 0 0 0 1 0 0 0 0 1 0 0 0 1 0"/>
			<feBlend mode="normal" in2="BackgroundImageFix" result="effect_dropShadow_1"/>
			<feBlend mode="normal" in="SourceGraphic" in2="effect_dropShadow_1" result="shape"/>
		</filter>
	</defs>
	<g filter="url(#filter_95_346_dd)">
		<path id="Vector" d="M27.03 33.02C25.81 33.01 24.59 32.87 23.41 32.6C19.31 31.69 15.08 29.37 11.52 26.08C7.96 22.78 5.44 18.88 4.45 15.1C3.41 11.12 4.16 7.72 6.54 5.51L7.23 4.89C7.84 4.32 8.68 4 9.56 4C10.43 4 11.27 4.32 11.89 4.89L15.81 8.5C16.42 9.07 16.77 9.85 16.77 10.65C16.77 11.46 16.42 12.24 15.81 12.81L13.49 14.94C14.6 16.74 16.11 18.54 17.89 20.19C19.68 21.83 21.63 23.23 23.57 24.25L25.89 22.12C26.19 21.83 26.56 21.61 26.96 21.46C27.36 21.3 27.79 21.22 28.22 21.22C28.65 21.22 29.08 21.3 29.48 21.46C29.88 21.61 30.24 21.83 30.55 22.12L34.47 25.73C35.08 26.3 35.43 27.08 35.43 27.88C35.43 28.69 35.08 29.47 34.47 30.04L33.78 30.67C32.1 32.22 29.77 33.02 27.03 33.02ZM9.56 6.16C9.43 6.16 9.31 6.18 9.19 6.23C9.08 6.27 8.97 6.33 8.89 6.42L8.2 7.05C6.41 8.7 5.89 11.38 6.73 14.59C7.62 17.99 9.91 21.53 13.17 24.54C16.44 27.56 20.27 29.67 23.96 30.49C27.44 31.27 30.34 30.79 32.13 29.14L32.81 28.51C32.99 28.34 33.09 28.12 33.09 27.89C33.09 27.65 32.99 27.43 32.81 27.26L28.89 23.65C28.71 23.48 28.47 23.39 28.22 23.39C27.97 23.39 27.73 23.48 27.55 23.65L24.61 26.36C24.44 26.52 24.21 26.62 23.96 26.66C23.72 26.7 23.47 26.66 23.25 26.55C20.84 25.4 18.42 23.73 16.24 21.72C14.05 19.7 12.25 17.47 11 15.25C10.89 15.04 10.84 14.81 10.88 14.58C10.92 14.36 11.04 14.15 11.21 13.98L14.15 11.28C14.33 11.11 14.42 10.89 14.42 10.65C14.42 10.42 14.33 10.2 14.15 10.03L10.23 6.42C10.14 6.33 10.04 6.27 9.92 6.23C9.81 6.18 9.68 6.16 9.56 6.16Z" fill="#FFFFFF" fill-opacity="1.000000" fill-rule="nonzero"/>
		<path id="Vector" d="M28.29 20C27.98 20 27.68 19.89 27.46 19.68C27.24 19.48 27.11 19.21 27.11 18.92C27.11 17.02 26.29 15.2 24.84 13.85C23.38 12.51 21.41 11.76 19.35 11.75C19.04 11.75 18.75 11.64 18.52 11.44C18.3 11.23 18.18 10.96 18.18 10.67C18.18 10.38 18.3 10.11 18.52 9.9C18.75 9.7 19.04 9.59 19.35 9.59C24.93 9.59 29.46 13.77 29.46 18.92C29.46 19.21 29.34 19.48 29.12 19.68C28.9 19.89 28.6 20 28.29 20Z" fill="#FFFFFF" fill-opacity="1.000000" fill-rule="nonzero"/>
		<path id="Vector" d="M33.25 20C32.93 20 32.64 19.89 32.41 19.68C32.2 19.48 32.07 19.21 32.07 18.92C32.07 12.44 26.36 7.18 19.35 7.18C19.04 7.18 18.75 7.06 18.52 6.86C18.3 6.66 18.18 6.38 18.18 6.09C18.18 5.81 18.3 5.53 18.52 5.33C18.75 5.12 19.04 5.01 19.35 5.01C27.66 5.01 34.42 11.25 34.42 18.92C34.42 19.21 34.29 19.48 34.08 19.68C33.85 19.89 33.56 20 33.25 20Z" fill="#FFFFFF" fill-opacity="1.000000" fill-rule="nonzero"/>
	</g>
</svg>
