<svg width="138.000000" height="128.000000" viewBox="0 0 138 128" fill="none" xmlns="http://www.w3.org/2000/svg" xmlns:xlink="http://www.w3.org/1999/xlink">
	<desc>
			Created with Pixso.
	</desc>
	<defs>
		<clipPath id="clip95_414">
			<rect id="7019497_shipping_transportation_delivery_truck_online_icon 1" rx="0.000000" width="137.000000" height="127.000000" transform="translate(0.500000 0.500000)" fill="white" fill-opacity="0"/>
		</clipPath>
	</defs>
	<rect id="7019497_shipping_transportation_delivery_truck_online_icon 1" rx="0.000000" width="137.000000" height="127.000000" transform="translate(0.500000 0.500000)" fill="#FFFFFF" fill-opacity="0"/>
	<g clip-path="url(#clip95_414)">
		<path id="Vector" d="M98.92 90.39L57.26 90.39C57.09 87.94 55.92 85.64 53.99 83.96C52.05 82.27 49.5 81.34 46.85 81.34C44.2 81.34 41.65 82.27 39.71 83.96C37.78 85.64 36.61 87.94 36.44 90.39L25.87 90.39L25.87 36L98.92 36L98.92 90.39Z" stroke="#FFFFFF" stroke-opacity="1.000000" stroke-width="2.000000" stroke-linejoin="round"/>
		<path id="Vector" d="M133.68 90.39L126.74 90.39C126.57 87.94 125.4 85.64 123.46 83.96C121.53 82.27 118.98 81.34 116.33 81.34C113.68 81.34 111.12 82.27 109.19 83.96C107.25 85.64 106.08 87.94 105.91 90.39L98.92 90.39L98.92 52L113.46 52L133.68 71.2L133.68 90.39Z" stroke="#FFFFFF" stroke-opacity="1.000000" stroke-width="2.000000" stroke-linejoin="round"/>
		<path id="Vector" d="M133.68 90.39L126.74 90.39C126.57 87.94 125.4 85.64 123.46 83.96C121.53 82.27 118.98 81.34 116.33 81.34C113.68 81.34 111.12 82.27 109.19 83.96C107.25 85.64 106.08 87.94 105.91 90.39L98.92 90.39L98.92 71.19L133.68 71.19L133.68 90.39Z" stroke="#FFFFFF" stroke-opacity="1.000000" stroke-width="2.000000" stroke-linejoin="round"/>
		<path id="Vector" d="M46.83 100C41.07 100 36.39 95.7 36.39 90.4C36.39 85.09 41.07 80.8 46.83 80.8C52.59 80.8 57.27 85.09 57.27 90.4C57.27 95.7 52.59 100 46.83 100Z" stroke="#FFFFFF" stroke-opacity="1.000000" stroke-width="2.000000" stroke-linejoin="round"/>
		<path id="Vector" d="M116.3 100C110.54 100 105.87 95.7 105.87 90.4C105.87 85.09 110.54 80.8 116.3 80.8C122.07 80.8 126.74 85.09 126.74 90.4C126.74 95.7 122.07 100 116.3 100Z" stroke="#FFFFFF" stroke-opacity="1.000000" stroke-width="2.000000" stroke-linejoin="round"/>
		<path id="Vector" d="M4.31 42.4L15.56 42.4" stroke="#FFFFFF" stroke-opacity="1.000000" stroke-width="2.000000" stroke-linejoin="round" stroke-linecap="round"/>
		<path id="Vector" d="M4.31 55.19L15.56 55.19" stroke="#FFFFFF" stroke-opacity="1.000000" stroke-width="2.000000" stroke-linejoin="round" stroke-linecap="round"/>
		<path id="Vector" d="M4.31 68L15.56 68" stroke="#FFFFFF" stroke-opacity="1.000000" stroke-width="2.000000" stroke-linejoin="round" stroke-linecap="round"/>
	</g>
</svg>
