<svg width="54.181641" height="51.096680" viewBox="0 0 54.1816 51.0967" fill="none" xmlns="http://www.w3.org/2000/svg" xmlns:xlink="http://www.w3.org/1999/xlink">
	<desc>
			Created with Pixso.
	</desc>
	<defs/>
	<path id="path4792" d="M54.18 0L0 0L0 51.09L54.18 51.09L54.18 0ZM34.23 48.2L34.23 2.89C44.58 5.78 52.14 14.88 52.14 25.53C52.14 36.21 44.58 45.27 34.23 48.2ZM2.08 24.44C2.68 11.9 13.68 1.92 27.11 1.92C28.7 1.92 30.3 2.07 31.84 2.35C31.84 14.61 21.34 24.44 8.3 24.44L2.08 24.44ZM8.3 26.64C21.34 26.64 31.84 36.45 31.84 48.73C30.3 49.01 28.7 49.16 27.11 49.16C13.68 49.16 2.68 39.18 2.08 26.64L8.3 26.64Z" fill="#FFFFFF" fill-opacity="1.000000" fill-rule="evenodd"/>
</svg>
