<svg width="108.000000" height="114.000000" viewBox="0 0 108 114" fill="none" xmlns="http://www.w3.org/2000/svg" xmlns:xlink="http://www.w3.org/1999/xlink">
	<desc>
			Created with Pixso.
	</desc>
	<defs>
		<clipPath id="clip95_428">
			<rect id="3427259_design_draft_drawing_paper_sketch_icon (1) 1" rx="0.000000" width="107.000000" height="113.000000" transform="translate(0.500000 0.500000)" fill="white" fill-opacity="0"/>
		</clipPath>
	</defs>
	<rect id="3427259_design_draft_drawing_paper_sketch_icon (1) 1" rx="0.000000" width="107.000000" height="113.000000" transform="translate(0.500000 0.500000)" fill="#FFFFFF" fill-opacity="0"/>
	<g clip-path="url(#clip95_428)">
		<path id="Vector" d="M96.89 33.25L89.16 25.09C88.73 24.64 88.16 24.39 87.55 24.39C86.95 24.39 86.37 24.64 85.94 25.09L81.13 30.18L64.17 12.28C64.13 12.24 64.09 12.21 64.05 12.18C64.04 12.17 64.03 12.16 64.01 12.15C63.98 12.13 63.95 12.12 63.92 12.1C63.91 12.09 63.89 12.09 63.88 12.08C63.83 12.06 63.79 12.05 63.74 12.04C63.74 12.04 63.74 12.04 63.74 12.04C63.69 12.03 63.64 12.02 63.59 12.02C63.58 12.02 63.58 12.02 63.57 12.02L17.05 12.02C13.41 12.02 10.44 15.15 10.44 19L10.44 94.99C10.44 98.84 13.41 101.97 17.05 101.97L75.45 101.97C79.1 101.97 82.07 98.84 82.07 94.99L82.07 52.28L91.41 42.42L96.89 36.64C97.77 35.71 97.77 34.18 96.89 33.25ZM64.41 15.06L79.19 30.66L67.3 30.66C65.71 30.66 64.41 29.29 64.41 27.61L64.41 15.06L64.41 15.06ZM80.39 94.99C80.39 97.86 78.17 100.19 75.45 100.19L17.05 100.19C14.33 100.19 12.12 97.86 12.12 94.99L12.12 19C12.12 16.13 14.33 13.8 17.05 13.8L62.73 13.8L62.73 27.61C62.73 30.27 64.78 32.44 67.3 32.44L78.99 32.44L49.47 63.59C49.33 63.74 49.21 63.91 49.11 64.12C49.1 64.13 49.09 64.14 49.08 64.15C49.06 64.2 49.02 64.27 48.99 64.35C48.97 64.39 48.94 64.46 48.92 64.54L46.2 73.14C46.2 73.15 46.2 73.15 46.2 73.16L45.06 76.77C44.88 77.31 44.9 77.89 45.09 78.4C45.1 78.41 45.1 78.42 45.1 78.42C45.13 78.5 45.16 78.56 45.2 78.63C45.21 78.65 45.21 78.66 45.22 78.68C45.25 78.74 45.29 78.8 45.33 78.86C45.34 78.88 45.35 78.9 45.37 78.92C45.37 78.93 45.37 78.93 45.37 78.93C45.41 78.98 45.45 79.03 45.49 79.09C45.51 79.11 45.52 79.13 45.54 79.15C45.58 79.2 45.63 79.24 45.67 79.29C45.7 79.31 45.71 79.33 45.73 79.35C45.78 79.39 45.83 79.43 45.88 79.46C45.9 79.48 45.92 79.5 45.95 79.52C45.99 79.55 46.04 79.58 46.09 79.61C46.12 79.62 46.15 79.65 46.17 79.66C46.22 79.68 46.26 79.7 46.3 79.72C46.34 79.74 46.38 79.76 46.42 79.78C46.44 79.79 46.47 79.79 46.49 79.8C46.72 79.88 46.96 79.93 47.21 79.93C47.45 79.93 47.7 79.89 47.93 79.8L59.52 75.73C59.58 75.71 59.64 75.68 59.7 75.65C59.74 75.63 59.78 75.61 59.82 75.6L59.84 75.59C59.84 75.58 59.85 75.58 59.86 75.57C59.86 75.57 59.87 75.57 59.87 75.57C59.89 75.56 59.9 75.54 59.92 75.53C59.94 75.52 59.96 75.51 59.97 75.5C60.13 75.4 60.28 75.28 60.41 75.15L80.39 54.06L80.39 94.99L80.39 94.99ZM47.96 73.2L50.17 66.21L57.93 74.4L51.32 76.74L47.96 73.2ZM49.53 77.36L47.4 78.11C47.31 78.14 47.21 78.15 47.12 78.14C46.97 78.11 46.83 78.02 46.74 77.88C46.73 77.87 46.72 77.86 46.71 77.84C46.7 77.83 46.69 77.82 46.69 77.8C46.69 77.8 46.69 77.8 46.68 77.79C46.66 77.74 46.64 77.68 46.63 77.6C46.63 77.6 46.63 77.6 46.63 77.59C46.63 77.58 46.63 77.56 46.63 77.54L46.63 77.51C46.63 77.5 46.63 77.5 46.63 77.49C46.63 77.44 46.64 77.39 46.66 77.33L47.37 75.09L49.53 77.36ZM82.07 49.76L80.39 51.54L59.52 73.56L50.97 64.53L80.39 33.48L81.07 32.76L82.07 33.82L89.62 41.79L82.07 49.76ZM95.69 35.38L90.82 40.53L82.26 31.5L87.14 26.35C87.36 26.12 87.75 26.12 87.97 26.35L95.7 34.51C95.92 34.75 95.92 35.14 95.69 35.38Z" fill="#FFFFFF" fill-opacity="1.000000" fill-rule="nonzero"/>
	</g>
</svg>
