<svg width="87.117188" height="89.953125" viewBox="0 0 87.1172 89.9531" fill="none" xmlns="http://www.w3.org/2000/svg" xmlns:xlink="http://www.w3.org/1999/xlink">
	<desc>
			Created with Pixso.
	</desc>
	<defs/>
	<path id="Vector" d="M86.45 21.23L78.72 13.07C78.29 12.62 77.72 12.37 77.11 12.37C76.5 12.37 75.93 12.62 75.5 13.07L70.68 18.15L53.73 0.26C53.69 0.22 53.65 0.18 53.61 0.16C53.6 0.15 53.58 0.14 53.57 0.13C53.54 0.11 53.51 0.09 53.48 0.08C53.46 0.07 53.45 0.06 53.44 0.06C53.39 0.04 53.34 0.02 53.3 0.01C53.3 0.01 53.3 0.01 53.29 0.01C53.25 0 53.2 0 53.15 0C53.14 0 53.14 0 53.13 0L6.61 0C2.96 0 0 3.13 0 6.98L0 82.96C0 86.82 2.96 89.95 6.61 89.95L65.01 89.95C68.66 89.95 71.63 86.82 71.63 82.96L71.63 40.26L80.97 30.4L86.45 24.62C87.33 23.68 87.33 22.16 86.45 21.23ZM53.97 3.04L68.75 18.63L56.86 18.63C55.27 18.63 53.97 17.26 53.97 15.58L53.97 3.04L53.97 3.04ZM69.94 82.96C69.94 85.83 67.73 88.17 65.01 88.17L6.61 88.17C3.89 88.17 1.68 85.83 1.68 82.96L1.68 6.98C1.68 4.11 3.89 1.78 6.61 1.78L52.29 1.78L52.29 15.58C52.29 18.25 54.34 20.41 56.86 20.41L68.55 20.41L39.03 51.57C38.89 51.72 38.77 51.89 38.66 52.09C38.66 52.11 38.65 52.11 38.64 52.13C38.62 52.17 38.58 52.25 38.55 52.32C38.53 52.37 38.5 52.43 38.48 52.52L35.76 61.12C35.76 61.12 35.76 61.13 35.76 61.13L34.62 64.74C34.44 65.29 34.46 65.86 34.65 66.38C34.66 66.38 34.66 66.39 34.66 66.4C34.69 66.47 34.72 66.54 34.76 66.61C34.76 66.63 34.77 66.64 34.78 66.66C34.81 66.72 34.85 66.78 34.89 66.83C34.9 66.86 34.91 66.88 34.92 66.9C34.92 66.9 34.92 66.9 34.93 66.9C34.96 66.96 35.01 67.01 35.05 67.06C35.07 67.08 35.08 67.1 35.1 67.12C35.14 67.18 35.19 67.22 35.23 67.26C35.25 67.28 35.27 67.3 35.29 67.32C35.34 67.36 35.39 67.4 35.44 67.44C35.46 67.46 35.48 67.48 35.5 67.5C35.55 67.53 35.6 67.55 35.65 67.58C35.67 67.6 35.7 67.62 35.73 67.64C35.78 67.66 35.82 67.68 35.86 67.7C35.9 67.72 35.94 67.74 35.98 67.75C36 67.76 36.03 67.77 36.05 67.78C36.28 67.86 36.52 67.91 36.77 67.91C37.01 67.91 37.26 67.86 37.49 67.78L49.08 63.7C49.14 63.68 49.2 63.66 49.26 63.63C49.3 63.61 49.34 63.59 49.37 63.57L49.4 63.56C49.4 63.56 49.41 63.55 49.41 63.55C49.42 63.55 49.43 63.54 49.43 63.54C49.45 63.53 49.46 63.52 49.48 63.51C49.5 63.5 49.51 63.49 49.53 63.48C49.69 63.38 49.84 63.26 49.97 63.12L69.94 42.04L69.94 82.96L69.94 82.96ZM37.52 61.17L39.73 54.18L47.49 62.38L40.88 64.71L37.52 61.17ZM39.09 65.34L36.96 66.09C36.86 66.12 36.77 66.13 36.68 66.11C36.53 66.09 36.39 66 36.29 65.86C36.28 65.85 36.28 65.83 36.27 65.82C36.26 65.81 36.25 65.79 36.25 65.78C36.25 65.77 36.25 65.77 36.24 65.77C36.22 65.72 36.2 65.65 36.19 65.58C36.19 65.58 36.19 65.57 36.19 65.57C36.19 65.55 36.19 65.54 36.19 65.52L36.19 65.48C36.19 65.48 36.19 65.47 36.19 65.46C36.19 65.41 36.2 65.36 36.22 65.31L36.93 63.06L39.09 65.34ZM71.63 37.74L69.94 39.52L49.08 61.54L40.53 52.51L69.94 21.46L70.63 20.74L71.63 21.8L79.18 29.77L71.63 37.74ZM85.25 23.36L80.38 28.51L71.82 19.48L76.7 14.33C76.92 14.09 77.31 14.09 77.53 14.33L85.25 22.49C85.48 22.73 85.48 23.12 85.25 23.36Z" fill="#FFFFFF" fill-opacity="1.000000" fill-rule="nonzero"/>
</svg>
