<svg width="36.000000" height="36.000000" viewBox="0 0 36 36" fill="none" xmlns="http://www.w3.org/2000/svg" xmlns:xlink="http://www.w3.org/1999/xlink">
	<desc>
			Created with Pixso.
	</desc>
	<defs>
		<linearGradient x1="18.000000" y1="0.000000" x2="18.000000" y2="36.000000" id="paint_linear_95_161_0" gradientUnits="userSpaceOnUse">
			<stop stop-color="#FDE610"/>
			<stop offset="1.000000" stop-color="#FFD123"/>
		</linearGradient>
	</defs>
	<path id="Vector" d="M36 27.92C36 32.38 32.37 36 27.92 36L8.07 36C3.62 36 0 32.37 0 27.92L0 8.07C0 3.62 3.62 0 8.07 0L27.92 0C32.37 0 36 3.62 36 8.07L36 27.92Z" fill="url(#paint_linear_95_161_0)" fill-opacity="1.000000" fill-rule="nonzero"/>
	<path id="Vector" d="M21.02 11.58C21.62 11.55 22.23 11.57 22.83 11.57C22.9 11.57 22.98 11.57 23.08 11.57L23.08 8.43C22.76 8.39 22.42 8.35 22.08 8.33C21.46 8.31 20.84 8.28 20.22 8.29C19.27 8.31 18.38 8.54 17.59 9.1C16.69 9.75 16.2 10.65 16.02 11.72C15.94 12.17 15.92 12.62 15.91 13.07C15.89 13.78 15.91 14.48 15.91 15.19L15.91 15.46L12.91 15.46L12.91 18.97L15.89 18.97L15.89 27.78L19.54 27.78L19.54 18.97L22.52 18.97C22.68 17.81 22.83 16.65 22.98 15.45C22.74 15.45 22.52 15.45 22.31 15.45C21.46 15.46 19.52 15.45 19.52 15.45C19.52 15.45 19.53 13.71 19.55 12.95C19.58 11.92 20.2 11.6 21.02 11.58Z" fill="#FFFFFF" fill-opacity="1.000000" fill-rule="evenodd"/>
</svg>
