<svg width="131.318359" height="35.152344" viewBox="0 0 131.318 35.1523" fill="none" xmlns="http://www.w3.org/2000/svg" xmlns:xlink="http://www.w3.org/1999/xlink">
	<desc>
			Created with Pixso.
	</desc>
	<defs/>
	<path id="Vector" d="M125.65 2.7C125.65 1.97 125.94 1.3 126.48 0.79C126.74 0.53 127.05 0.33 127.4 0.2C127.74 0.06 128.11 -0.01 128.48 0C128.85 -0.01 129.22 0.06 129.57 0.2C129.91 0.33 130.22 0.53 130.48 0.79C130.75 1.04 130.96 1.33 131.1 1.66C131.24 1.99 131.32 2.34 131.31 2.7C131.31 3.43 131.02 4.1 130.48 4.61C130.22 4.87 129.91 5.07 129.57 5.2C129.22 5.34 128.85 5.41 128.48 5.41C128.11 5.41 127.74 5.34 127.4 5.2C127.05 5.07 126.74 4.87 126.48 4.61C126.22 4.36 126.01 4.07 125.86 3.74C125.72 3.41 125.65 3.06 125.65 2.7ZM126.02 2.7C126.02 2.07 126.27 1.49 126.74 1.04C126.97 0.82 127.24 0.64 127.54 0.53C127.84 0.41 128.16 0.35 128.48 0.35C129.15 0.35 129.75 0.59 130.22 1.04C130.69 1.49 130.94 2.07 130.94 2.7C130.94 3.33 130.69 3.91 130.22 4.36C129.99 4.58 129.72 4.76 129.42 4.87C129.13 4.99 128.81 5.05 128.48 5.05C128.16 5.05 127.84 4.99 127.54 4.87C127.24 4.76 126.97 4.58 126.74 4.36C126.52 4.14 126.33 3.89 126.21 3.6C126.09 3.32 126.02 3.01 126.02 2.7ZM128.03 2.47L128.61 2.47C128.65 2.47 128.69 2.46 128.73 2.45C128.76 2.43 128.8 2.41 128.82 2.38C128.85 2.36 128.87 2.32 128.88 2.29C128.89 2.25 128.9 2.21 128.9 2.18C128.89 2.11 128.86 2.04 128.81 2C128.75 1.95 128.68 1.93 128.61 1.93L128.03 1.93L128.03 2.47L128.03 2.47ZM128.02 4.14L127.09 4.14L127.09 1.26L128.9 1.26C129.11 1.26 129.3 1.31 129.47 1.42C129.57 1.47 129.65 1.55 129.72 1.63C129.78 1.72 129.82 1.83 129.83 1.93C129.87 2.18 129.79 2.43 129.61 2.62C129.53 2.7 129.42 2.76 129.3 2.79C129.51 2.83 129.67 2.99 129.72 3.19C129.74 3.26 129.75 3.33 129.75 3.4C129.77 3.6 129.79 3.78 129.81 3.99C129.81 4.04 129.84 4.09 129.88 4.14L128.94 4.14C128.9 4.08 128.88 4.01 128.87 3.94C128.85 3.76 128.83 3.58 128.82 3.4C128.81 3.33 128.78 3.26 128.72 3.21C128.67 3.16 128.59 3.13 128.52 3.13L128.02 3.13L128.02 4.14L128.02 4.14ZM14.58 27.54C15.1 28.25 15.96 28.63 17.07 28.63C18.17 28.63 19.33 28.25 20.43 27.54C21.41 26.91 22.27 26.12 22.98 25.2C24.44 23.27 25.23 21.33 25.34 19.4C25.38 18.48 25.16 17.72 24.68 17.06C24.16 16.35 23.3 15.98 22.2 15.99C21.09 15.99 19.93 16.36 18.84 17.06C17.86 17.7 16.99 18.49 16.29 19.4C14.78 21.32 13.98 23.29 13.92 25.21C13.88 26.12 14.1 26.88 14.58 27.54ZM0 34.17L13.46 0.99L23.44 0.99L18.88 12.23C22.45 10.29 26.08 9.41 29.45 9.66C33.07 9.9 35.51 11.86 36.01 14.92C36.82 19.59 34.57 25.07 29.93 29.72C26.91 32.78 22.89 34.77 19.01 35.1C15.39 35.38 12.5 34.35 10.79 32.16L9.97 34.17L0 34.17L0 34.17ZM31.96 34.17L45.43 0.99L55.81 0.99L42.34 34.17L31.96 34.17ZM81.58 10.58L72 34.17L62.23 34.17L63.16 31.89C61.82 32.86 60.46 33.56 58.96 34.05C55.48 35.14 52.29 35.18 49.63 34.17C46.6 33.04 45.53 29.94 46.97 26.51L53.43 10.58L63.62 10.58L57.91 24.66C57.52 25.63 57.56 26.51 58.02 27.2C58.47 27.89 59.26 28.27 60.3 28.3C61.36 28.31 62.49 27.94 63.53 27.25C64.57 26.55 65.33 25.65 65.74 24.67L71.45 10.58L81.58 10.58ZM82.75 10.58L91.88 10.58L90.89 13.19C94.51 10.42 98.69 9.16 102.21 9.77C104.46 10.13 106.02 11.39 106.64 13.37C108.21 12.11 109.83 11.2 111.61 10.58C114.69 9.49 117.53 9.34 120.01 10.12C123.19 11.16 124.41 14.47 122.97 18.18L116.9 34.18L107.52 34.18L112.83 20.16C113.2 19.17 113.16 18.27 112.71 17.57C112.27 16.87 111.5 16.5 110.51 16.5C109.54 16.51 108.53 16.88 107.59 17.56C106.66 18.23 105.96 19.1 105.58 20.05L100.23 34.18L90.58 34.18L95.91 20.09C96.31 19.08 96.26 18.15 95.79 17.44C95.32 16.74 94.5 16.38 93.46 16.43C92.5 16.47 91.52 16.85 90.61 17.53C89.71 18.2 89.03 19.04 88.66 19.98L83.29 34.17L73.81 34.17L82.75 10.58Z" fill="#6D6B67" fill-opacity="0.460000" fill-rule="evenodd"/>
</svg>
