<svg width="191.140625" height="42.190430" viewBox="0 0 191.141 42.1904" fill="none" xmlns="http://www.w3.org/2000/svg" xmlns:xlink="http://www.w3.org/1999/xlink">
	<desc>
			Created with Pixso.
	</desc>
	<defs/>
	<path id="Vector" d="M78.25 12.21C77.49 9.67 70.26 9.97 70.26 13.16L70.26 30.32C70.26 33.58 78.08 34.13 78.73 30.51C79.14 28.24 78.27 18.91 79.08 17.71C79.81 16.62 83.57 15.48 83.59 19.82L83.57 30.56C83.93 33.77 91.37 33.76 91.81 30.78C92.57 25.66 89.23 13.26 96.62 17.69C96.62 20.79 96.62 23.88 96.62 26.98C96.61 32.46 97.11 32.94 101.94 32.94C103.37 32.94 105.13 31.65 105.13 30.32L105.13 16.02C105.13 10.95 98.12 8.6 93.69 11.02C92.7 11.57 91.91 12.4 91.03 12.92C90.83 12.79 86.69 8.1 80.92 10.78C80.46 11 80.12 11.24 79.67 11.58C78.95 12.12 79.36 12.13 78.25 12.21L78.25 12.21ZM117.38 12.21C116.5 11.68 115.65 10.54 113.12 10.54C110.9 10.54 108.6 11.7 108.6 13.64L108.6 38.65C108.6 42.11 113.28 43.04 116.18 41.39C118.57 40.02 117.65 34.99 117.65 31.27C120.84 33.18 123.91 33.48 127.54 32.02C130.97 30.64 133.88 26.56 133.88 22.93C133.88 20.05 134.08 19.19 132.87 16.45C130.69 11.57 124.31 8.05 117.38 12.21L117.38 12.21ZM16.76 21.26C16.76 27.05 20.86 32.94 26.88 32.94C32.32 32.94 31.51 31.74 33.8 31.27C34.41 33.33 38.94 33.36 40.72 32.22C41.29 31.86 41.78 31.18 41.78 30.32L41.78 13.16C41.78 10.38 35.51 9.31 33.8 12.21C28.88 9.26 23.45 9.59 19.65 13.83C18.04 15.63 16.76 19 16.76 21.26L16.76 21.26ZM44.98 13.87L44.98 24.83C44.98 27.7 46.35 29.81 48.16 31.04C55.91 36.28 67.07 32.08 67.07 25.55L67.07 13.64C67.07 9.49 59.77 9.76 58.72 12.6C57.83 15.01 59.33 23.63 58.16 25.2C56.72 27.14 53.61 26.23 53.48 23.66C53.38 21.65 53.69 13.81 53.44 12.73C52.79 9.9 44.98 9.22 44.98 13.87L44.98 13.87ZM149.06 12.92L149.06 26.74C149.06 27.57 149.99 29.04 150.39 29.6C153.63 34.1 165.46 35.23 169.65 29.21C170.37 28.17 170.88 27.39 170.88 25.79L170.88 13.16C170.88 9.86 163.65 9.58 162.53 12.6C161.64 15.01 163.14 23.63 161.97 25.2C160.53 27.14 157.42 26.23 157.29 23.66C157.15 20.72 157.53 15.6 157.31 13.16C157.03 10.07 152.12 10.06 150.26 11.14C149.52 11.56 149.06 11.94 149.06 12.92L149.06 12.92ZM183.13 26.26C183.13 27.14 182.56 26.98 181.27 26.98C178.98 26.98 180.6 25.79 176.47 25.79C172.93 25.79 171.47 32.94 181 32.94L183.13 32.94C187.6 32.94 191.11 29.81 191.11 25.79C191.11 19.28 182.33 19.13 182.33 17.45C182.33 15.36 185.64 17.69 186.89 17.91C191.69 18.77 191.75 14.51 190.33 12.91C188.09 10.4 180.1 9.31 176.27 12.74C173.55 15.16 172.26 20.55 177.62 23.09C178.73 23.62 179.53 23.97 180.7 24.39C181.53 24.69 183.13 25.22 183.13 26.26L183.13 26.26ZM136.55 3.39L136.55 30.08C136.55 34.55 145.6 34.63 145.6 30.08L145.6 3.39C145.6 2.38 145.28 1.69 144.66 1.13C142.61 -0.71 136.55 -0.56 136.55 3.39ZM8.78 12.21L8.25 12.21C7.38 9.31 0 9.66 0 12.92L0 30.32C0 33.26 5.75 33.8 7.8 31.82C8.69 30.96 8.53 30.4 8.52 28.89C8.5 26.59 8.48 24.26 8.5 21.97C8.52 19.33 9.12 18.27 11.97 18.16C18.52 17.93 16.65 10.06 13.04 10.06C11.36 10.06 9.39 9.85 8.78 12.21L8.78 12.21ZM29.53 17.05C31.9 17.05 33.82 19.11 33.82 21.66C33.82 24.21 31.9 26.27 29.53 26.27C27.16 26.27 25.24 24.21 25.24 21.66C25.24 19.11 27.16 17.05 29.53 17.05ZM121.23 17.05C123.6 17.05 125.52 19.11 125.52 21.66C125.52 24.21 123.6 26.27 121.23 26.27C118.85 26.27 116.93 24.21 116.93 21.66C116.93 19.11 118.85 17.05 121.23 17.05Z" fill="#6D6B67" fill-opacity="0.460000" fill-rule="evenodd"/>
</svg>
