<svg width="234.324219" height="44.960938" viewBox="0 0 234.324 44.9609" fill="none" xmlns="http://www.w3.org/2000/svg" xmlns:xlink="http://www.w3.org/1999/xlink">
	<desc>
			Created with Pixso.
	</desc>
	<defs/>
	<path id="Vector" d="M105.87 15.93L99.98 15.93L99.98 12.06L105.87 12.06L105.87 15.93ZM106.04 39.18L99.98 39.18L99.98 20.14L106.04 20.14L106.04 39.18ZM21.62 24.03C20.84 22.87 19.17 19.83 13.97 19.83C10.75 19.83 7.82 21.45 6.05 22.7L6.05 12.17L0 12.17L0 38.84L6.05 38.84L6.05 29.04C6.71 27.1 9.13 24.12 12.04 24.12C15.46 24.12 15.15 25.67 15.15 25.67L15.15 38.73L21.88 38.73L21.88 27.42C21.92 26.47 21.92 24.47 21.62 24.03ZM162.44 24.03C161.65 22.87 159.98 19.83 154.78 19.83C151.57 19.83 148.64 21.45 146.87 22.7L146.87 12.17L140.81 12.17L140.81 38.84L146.87 38.84L146.87 29.04C147.52 27.1 149.94 24.12 152.85 24.12C156.27 24.12 155.96 25.67 155.96 25.67L155.96 38.73L162.69 38.73L162.69 27.42C162.73 26.47 162.73 24.47 162.44 24.03ZM50.81 25.45C50.81 20.17 39.45 19.58 39.45 19.58C26.82 19.58 27.12 28.52 27.12 28.52C27.12 38.92 39.37 39.41 42.12 39.41C44.87 39.41 50.44 38.73 50.44 38.73L50.44 35.46C47.84 36.14 43.83 36.14 43.83 36.14C35.36 36.14 34.32 28.72 34.32 28.72L50.81 28.72L50.81 25.45L50.81 25.45ZM34.32 26.08C34.32 26.08 34.77 22.76 38.93 22.76C43.09 22.76 44.5 25.1 44.5 26.03L34.32 26.08ZM124.6 22.76C128.75 22.76 129.33 25.84 129.33 26.77L136.54 26.74C136.54 18.97 125.11 19.58 125.11 19.58C112.49 19.58 112.79 28.52 112.79 28.52C112.79 38.92 125.04 39.41 127.79 39.41C130.54 39.41 136.11 38.73 136.11 38.73L136.11 35.46C133.51 36.14 129.5 36.14 129.5 36.14C119.99 36.14 119.99 28.72 119.99 28.72C119.99 28.72 119.17 22.76 124.6 22.76ZM73.55 23.46L73.55 20.14L65.47 20.14L65.47 16.01L65.52 13.53L58.57 15.49L58.57 20.14L52.51 20.14L52.51 23.46L58.57 23.46L58.57 34.2L58.64 34.2C58.61 34.9 58.59 35.9 58.69 36.68C58.98 39.22 64.18 39.37 64.18 39.37L72.65 39.37L72.65 36.04C72.65 36.04 72.06 36.09 68.49 36.09C64.92 36.09 65.52 33.36 65.52 33.36L65.47 33.36L65.47 23.46L73.55 23.46ZM95.39 23.46L95.39 20.14L87.31 20.14L87.31 16.01L87.36 13.53L80.41 15.49L80.41 20.14L74.35 20.14L74.35 23.46L80.41 23.46L80.41 34.2L80.48 34.2C80.45 34.9 80.43 35.9 80.52 36.68C80.82 39.22 86.02 39.37 86.02 39.37L94.49 39.37L94.49 36.04C94.49 36.04 93.89 36.09 90.33 36.09C86.76 36.09 87.36 33.36 87.36 33.36L87.31 33.36L87.31 23.46L95.39 23.46Z" fill="#6D6B67" fill-opacity="0.460000" fill-rule="evenodd"/>
	<path id="Vector" d="M176.85 20.91L234.32 0L234.32 4.1L176.75 25.21L176.85 20.91Z" fill="#6D6B67" fill-opacity="0.460000" fill-rule="evenodd"/>
	<path id="Vector" d="M176.85 27.49L234.32 6.58L234.32 10.68L176.75 31.79L176.85 27.49Z" fill="#6D6B67" fill-opacity="0.460000" fill-rule="evenodd"/>
	<path id="Vector" d="M176.85 34.07L234.32 13.16L234.32 17.26L176.75 38.37L176.85 34.07Z" fill="#6D6B67" fill-opacity="0.460000" fill-rule="evenodd"/>
	<path id="Vector" d="M176.85 40.65L234.32 19.74L234.32 23.84L176.75 44.96L176.85 40.65Z" fill="#6D6B67" fill-opacity="0.460000" fill-rule="evenodd"/>
</svg>
