<svg width="168.000000" height="24.000000" viewBox="0 0 168 24" fill="none" xmlns="http://www.w3.org/2000/svg" xmlns:xlink="http://www.w3.org/1999/xlink">
	<desc>
			Created with Pixso.
	</desc>
	<defs/>
	<path id="Vector" d="M93.41 0L117.22 0L117.22 5.14L100.79 5.14L100.79 9.05L115.21 9.05L115.21 13.91L100.79 13.91L100.79 18.17L117.22 18.17L117.22 24L93.69 24L93.69 23.93L93.41 23.93L93.41 0ZM144.19 0L168 0L168 5.14L151.58 5.14L151.58 9.05L165.99 9.05L165.99 13.91L151.58 13.91L151.58 18.17L168 18.17L168 24L144.47 24L144.47 23.93L144.19 23.93L144.19 0ZM119.29 0L127.22 0L127.22 18.17L142.47 18.17L142.47 24L119.91 24L119.91 23.93L119.29 23.93L119.29 0ZM67.19 0L91.48 0L91.48 5.14L74.51 5.14L74.51 8.91L89.55 8.91L89.55 13.92L74.51 13.92L74.51 23.93L67.13 23.93L67.13 0L67.19 0ZM33.45 0L39.17 0L39.17 5.14L33.45 5.14L33.45 0ZM42.39 13.85L52.04 13.85L47.09 5L42.39 13.85ZM54.96 19.06L39.63 19.06L37.04 23.93L29.46 23.93L42.91 0L51.12 0L65.27 23.93L57.68 23.93L54.96 19.06ZM55.08 0.01L60.81 0.01L60.81 5.16L55.08 5.16L55.08 0.01ZM0 0L8.14 0L8.14 9.05L19.25 9.05L19.25 0L27.39 0L27.39 23.93L19.25 23.93L19.25 13.78L8.14 13.78L8.14 23.93L0 23.93L0 0Z" fill="#6D6B67" fill-opacity="0.460000" fill-rule="evenodd"/>
</svg>
