<svg width="63.000000" height="63.000000" viewBox="0 0 63 63" fill="none" xmlns="http://www.w3.org/2000/svg" xmlns:xlink="http://www.w3.org/1999/xlink">
	<desc>
			Created with Pixso.
	</desc>
	<defs>
		<filter id="filter_95_352_dd" x="0.000000" y="0.000000" width="63.000000" height="63.000000" filterUnits="userSpaceOnUse" color-interpolation-filters="sRGB">
			<feFlood flood-opacity="0" result="BackgroundImageFix"/>
			<feColorMatrix in="SourceAlpha" type="matrix" values="0 0 0 0 0 0 0 0 0 0 0 0 0 0 0 0 0 0 127 0" result="hardAlpha"/>
			<feOffset dx="0" dy="0"/>
			<feGaussianBlur stdDeviation="1.33333"/>
			<feComposite in2="hardAlpha" operator="out" k2="-1" k3="1"/>
			<feColorMatrix type="matrix" values="0 0 0 0 1 0 0 0 0 1 0 0 0 0 1 0 0 0 1 0"/>
			<feBlend mode="normal" in2="BackgroundImageFix" result="effect_dropShadow_1"/>
			<feBlend mode="normal" in="SourceGraphic" in2="effect_dropShadow_1" result="shape"/>
		</filter>
		<clipPath id="clip95_352">
			<rect id="4960339_measure_measurement_ruler_tape_icon 1" rx="0.000000" width="54.000000" height="54.000000" transform="translate(4.500000 4.500000)" fill="white" fill-opacity="0"/>
		</clipPath>
	</defs>
	<g filter="url(#filter_95_352_dd)">
		<rect id="4960339_measure_measurement_ruler_tape_icon 1" rx="0.000000" width="54.000000" height="54.000000" transform="translate(4.500000 4.500000)" fill="#FFFFFF" fill-opacity="0"/>
		<g clip-path="url(#clip95_352)">
			<path id="path1852" d="M24 13.95C22.35 13.95 20.76 14.25 19.29 14.77C19.91 14.69 20.54 14.64 21.18 14.64C29.68 14.64 36.64 21.58 36.65 30.08C36.65 30.08 36.65 30.08 36.65 30.08L36.65 38.5C37.21 37.52 37.8 36.49 38.26 35.69C38.33 35.56 38.37 35.42 38.37 35.27L38.37 28.3C38.36 20.38 31.92 13.95 24 13.95L24 13.95ZM21.18 16.36C13.59 16.36 7.43 22.53 7.43 30.11C7.43 37.69 13.59 43.86 21.18 43.86C21.18 43.86 21.18 43.86 21.19 43.86C24.62 43.85 28.91 43.86 32.15 43.86C33.62 43.86 34.93 42.76 34.93 41.29L34.93 30.08C34.92 22.51 28.75 16.36 21.18 16.36L21.18 16.36ZM20.76 24.18C24.31 24.18 27.2 27.08 27.2 30.63C27.2 34.18 24.31 37.07 20.76 37.07C17.21 37.07 14.31 34.18 14.31 30.63C14.31 27.08 17.21 24.18 20.76 24.18ZM20.76 25.9C18.14 25.9 16.03 28.01 16.03 30.63C16.03 33.25 18.14 35.35 20.76 35.35C23.38 35.35 25.48 33.25 25.48 30.63C25.48 28.01 23.38 25.9 20.76 25.9ZM40.08 35.36C40.07 35.78 39.96 36.18 39.75 36.55C39.75 36.55 39.75 36.55 39.75 36.55C38.61 38.51 37.67 40.21 36.54 42.25C36.92 42.25 38.08 42.25 38.72 42.25L41.46 37.5C41.53 37.38 41.63 37.28 41.74 37.2C41.86 37.13 42 37.08 42.14 37.07C42.16 37.06 42.19 37.06 42.22 37.06C42.37 37.06 42.52 37.11 42.65 37.18C42.78 37.26 42.89 37.37 42.96 37.5C43.04 37.63 43.07 37.78 43.07 37.93C43.07 38.08 43.03 38.23 42.95 38.36L40.7 42.25C41.59 42.25 42.14 42.26 43.13 42.25L44.39 40.08C44.45 39.96 44.55 39.86 44.67 39.78C44.79 39.7 44.92 39.66 45.06 39.64C45.09 39.64 45.12 39.64 45.16 39.64C45.31 39.64 45.45 39.68 45.58 39.76C45.71 39.84 45.82 39.95 45.89 40.08C45.97 40.22 46 40.36 46 40.52C46 40.67 45.95 40.81 45.88 40.94L45.12 42.25C46.13 42.25 46.68 42.25 47.55 42.24L50.29 37.5C50.35 37.38 50.45 37.28 50.57 37.2C50.68 37.13 50.82 37.08 50.96 37.07C50.99 37.06 51.01 37.06 51.04 37.06C51.19 37.06 51.34 37.11 51.47 37.18C51.6 37.26 51.71 37.37 51.78 37.5C51.86 37.63 51.9 37.78 51.9 37.93C51.89 38.08 51.85 38.23 51.78 38.36L49.54 42.24C50 42.23 50.99 42.23 51.26 42.23C51.57 42.23 51.85 42.08 52 41.85L55.44 36.5C55.77 35.99 55.36 35.36 54.7 35.36L40.08 35.36ZM55.56 39.5L53.45 42.78C53.45 42.78 53.45 42.78 53.44 42.78C52.94 43.56 52.11 43.94 51.27 43.95C51.26 43.95 51.26 43.95 51.26 43.95C51.13 43.95 50.58 43.95 50.4 43.95L50.4 48.17C50.39 49.08 51.63 49.38 52.03 48.55L55.47 41.68C55.53 41.56 55.56 41.43 55.56 41.3L55.56 39.5Z" fill="#000000" fill-opacity="0.170000" fill-rule="nonzero"/>
		</g>
	</g>
</svg>
